<?xml version="1.0" encoding="UTF-8" standalone="no"?>
<!DOCTYPE svg PUBLIC "-//W3C//DTD SVG 1.1//EN" "http://www.w3.org/Graphics/SVG/1.1/DTD/svg11.dtd">
<svg width="100%" height="100%" viewBox="0 0 600 600" version="1.1" xmlns="http://www.w3.org/2000/svg" xmlns:xlink="http://www.w3.org/1999/xlink" xml:space="preserve" xmlns:serif="http://www.serif.com/" style="fill-rule:evenodd;clip-rule:evenodd;stroke-linejoin:round;stroke-miterlimit:2;">
    <g id="Babel-B-Icon" serif:id="Babel B Icon" transform="matrix(1,0,0,1,-2476.95,-405.775)">
        <g id="Spacing" transform="matrix(2.63158,0,0,3.125,-3072.92,1692.4)">
            <rect x="2108.95" y="-411.721" width="228" height="192" style="fill:none;"/>
        </g>
        <g id="B" transform="matrix(1,0,0,1,2432.3,329.575)">
            <g id="Shadow" transform="matrix(1,0,0,1,4.5,8)">
                <path d="M493.3,386.7C495.1,386.3 501.6,363.7 501.4,364.4L499.3,352C498.7,348.2 487.6,334.4 466.1,310.6C465.7,306 473.3,299.3 488.8,290.6L532.6,252.1C542.4,239.5 548.2,219.3 550.1,191.5L549.5,185C547.8,165.4 533.6,149.6 506.9,137.4C491.1,126.7 462.7,121 421.7,120.1C387.7,123 343.3,135.1 288.7,156.2C273.7,167.1 256.6,177.9 237.4,188.6L237.7,192C239,191.9 240.7,191.2 242.8,190C245,189.8 246.2,190.8 246.4,192.8L249.8,190.9L251.5,190.8L251.6,192.4C251.7,194 239.8,203.3 215.7,220.3L217.6,223.3L215.9,223.4L212.2,222.1C212.3,223.1 210.6,223.8 207.1,224.1L207.3,225.9L211.3,230.3C210,230.4 208.2,230 205.9,229.2C198.1,229.9 190.5,235.5 183,246.1L184.9,249.1C191.4,243.1 195.2,240.1 196.3,240L196.7,244.9C195.6,245 193.9,245.7 191.6,246.9L195.7,253.1C203.6,244.6 212.3,237.3 221.8,231.2C226.5,232.4 229,233.9 229.1,235.5L232.7,235.2C258.5,216.1 284,202.3 309.3,193.8L309.6,197.2C304.9,204.2 301.7,207.8 300,208C300.2,210.4 301,212.5 302.5,214.3C302.9,218.6 291.4,247.6 268.1,301.2C215.2,425.8 170.8,518 134.7,577.6C134.8,578.8 135.5,580.4 136.8,582.4C145.7,580.3 151.3,578.1 153.7,576L155.6,575.8L155.9,579.2L159.2,578.9L162.6,577C162.7,578 163.8,578.5 166.1,578.3L166.4,581.7C166.7,585 164.8,590 160.8,596.9C157.2,601 153.3,609.6 149.2,622.7L149.3,624.3L152.6,624C167,607.9 177.9,592.1 185.4,576.7C227.4,564.4 259.4,552.3 281.6,540.4C303.9,538.5 320.9,532.6 332.5,522.9L332.3,521.1L323.9,523.6L322,523.8L321.8,522C338.2,519.5 349.5,515.9 355.8,510.9C387.7,486.3 411.8,468.9 428.1,458.6C461.6,434 483.4,410 493.3,386.7ZM203.3,235.8L201.6,235.9L201.3,232.8L208.2,232.2L208.3,233.8C207.2,233.9 205.5,234.5 203.3,235.8ZM169.6,572.9C165.6,571.1 162,570.4 158.9,570.7L158.5,565.8C158.3,563.9 159.4,562.6 161.8,562.1C164,561.9 165.3,563.5 165.5,566.7C171.3,559.6 174.5,556 175.1,555.9L178.8,557.4C177.6,567.4 174.5,572.5 169.6,572.9ZM529.7,196.2C528,196.4 524.6,191.1 519.7,180.6L519.4,177.5C522.6,177.2 525.9,182.4 529.4,193.1L529.7,196.2ZM524.9,158.9L523.5,162.2L474.6,141.8C507.2,142.9 524,148.6 524.9,158.9ZM318.4,336.2L311.5,336.8L311.2,333.7L318.1,333.1L318.4,336.2ZM312.8,229.7L314.5,229.6L314.9,234.5C313.3,234.6 311.2,237 308.6,241.6L308.3,238.2C311.4,234.5 313,231.7 312.8,229.7ZM298.3,263.9L298.9,270.4L297.2,270.5L296.6,264L298.3,263.9ZM290.7,276.1L294,275.8C293.7,281.2 292.2,284.1 289.5,284.3L287.8,284.4C289.9,280.8 290.9,278 290.7,276.1ZM285,293.1L286.9,292.9L287,294.5L283.9,299.7L280.6,300L280.5,298.4C283.8,298.1 285.3,296.4 285,293.1ZM279.4,308.4L278.4,316.6L276.7,316.7L276,308.6L279.4,308.4ZM223.3,467.9C221.1,479.1 218.7,484.8 216.2,485L216.1,483.4C215.5,477.9 217.9,472.7 223.3,467.9ZM213,490.2L213.1,491.8C213.3,494 212.3,495.3 210.1,495.4L210,493.8C209.8,491.9 210.8,490.7 213,490.2ZM210,536.5L215.2,536L215.4,537.8C214.1,537.9 212.4,538.6 210.3,539.8L207,540.1C206.8,538.4 207.9,537.1 210,536.5ZM358,490.8C328.8,505.2 311.6,515 306.5,520.1C274.9,531.1 259.2,537.9 259.5,540.6C231.4,551.7 212.9,559.9 204,565C201.9,565.2 198.9,564.4 194.9,562.6C194.4,556.9 197,552.3 202.5,548.6C207.4,548.2 212.1,548.9 216.6,550.8C221.8,548.1 230.9,545.1 243.8,541.9L243.5,538.5L233.1,539.4C234.4,537.6 244.4,532.9 263.2,525.3L268.4,524.8L268.5,526.4C259.6,527.2 254.7,529.8 253.6,534.5C253.8,536.6 255,537.5 257.2,537.3C263.9,533.1 267.2,530.6 267.1,529.9C279.8,527.5 314.9,509.1 372.4,474.8L372.7,477.9C372.8,479.4 367.9,483.6 358,490.8ZM269.8,519.8C278.2,519.1 285.4,515.7 291.4,509.8C293.8,509.6 295.1,510.5 295.2,512.6C291.1,513 283.2,516.4 271.7,523L270,523.1L269.8,519.8ZM412.1,410.5L368,445.5C335.2,467 317.6,477.8 315,478C262.8,506.7 230.3,521.6 217.7,522.7L215.8,522.9C217.4,517 240.6,469.5 285.6,380.1C305.4,378.4 336.6,369.2 379.1,352.4L389.5,351.5C411,349.6 427.1,353.8 437.7,363.8L438.3,370.3C430.4,393.2 421.6,406.6 412.1,410.5ZM325.9,362L333,361.4L333.1,363L326,363.6L325.9,362ZM425.6,345.1L430.8,344.6C435.6,346.9 438.1,348.9 438.3,350.7L438.4,352.3C433.8,352.7 429.5,350.3 425.6,345.1ZM439.7,264.8C435.1,270.3 422.5,279.7 401.9,292.9C395.1,293.5 369.8,303.3 326,322.5C323.8,321.5 321.5,321.1 319,321.3L318.7,318.2C318.2,311.9 321,304 327.2,294.4C330.6,276.4 334.3,266.1 338.4,263.6L374.9,181.5C374.5,176.4 382.3,172.5 398.3,169.8L403.5,169.3L403.9,174C419.6,171.6 429.4,170.2 433.2,169.9C462.2,167.4 477.3,173.3 478.5,187.4L481.8,187.1L481.1,178.8L484.7,178.5C493.2,183.2 497.8,188.9 498.4,195.6C498.8,200.2 496.3,205.9 491,212.7C488.8,212.9 487.5,211.3 487.3,208.1L483.7,208.4L482.9,218.4C468.2,240.4 457.5,251.7 450.9,252.3C444.9,260.6 441.2,264.7 439.7,264.8ZM462.1,322.3C459.1,320.3 456.7,319.4 454.9,319.5L454.5,314.6L457.8,314.3L465.1,318.6C465.4,320.9 464.4,322.1 462.1,322.3ZM485.3,349.8C488.5,351.1 490.4,352.5 490.8,353.8L489.2,354.2L489.3,354.3C489,354.3 488.6,354.4 488.3,354.5L485.9,356.4L485.3,349.8ZM487.5,363.6L487.2,362.3L491.4,361.3L491.7,362.6L487.5,363.6ZM497.6,374.9C497.825,374.863 497.1,376.9 497.1,376.9C497.3,376.2 497.5,375.5 497.6,374.9Z" style="fill:rgb(5,5,7);fill-rule:nonzero;"/>
            </g>
            <path id="Babel-B" serif:id="Babel B" d="M493.3,386.7C495.1,386.3 501.6,363.7 501.4,364.4L499.3,352C498.7,348.2 487.6,334.4 466.1,310.6C465.7,306 473.3,299.3 488.8,290.6L532.6,252.1C542.4,239.5 548.2,219.3 550.1,191.5L549.5,185C547.8,165.4 533.6,149.6 506.9,137.4C491.1,126.7 462.7,121 421.7,120.1C387.7,123 343.3,135.1 288.7,156.2C273.7,167.1 256.6,177.9 237.4,188.6L237.7,192C239,191.9 240.7,191.2 242.8,190C245,189.8 246.2,190.8 246.4,192.8L249.8,190.9L251.5,190.8L251.6,192.4C251.7,194 239.8,203.3 215.7,220.3L217.6,223.3L215.9,223.4L212.2,222.1C212.3,223.1 210.6,223.8 207.1,224.1L207.3,225.9L211.3,230.3C210,230.4 208.2,230 205.9,229.2C198.1,229.9 190.5,235.5 183,246.1L184.9,249.1C191.4,243.1 195.2,240.1 196.3,240L196.7,244.9C195.6,245 193.9,245.7 191.6,246.9L195.7,253.1C203.6,244.6 212.3,237.3 221.8,231.2C226.5,232.4 229,233.9 229.1,235.5L232.7,235.2C258.5,216.1 284,202.3 309.3,193.8L309.6,197.2C304.9,204.2 301.7,207.8 300,208C300.2,210.4 301,212.5 302.5,214.3C302.9,218.6 291.4,247.6 268.1,301.2C215.2,425.8 170.8,518 134.7,577.6C134.8,578.8 135.5,580.4 136.8,582.4C145.7,580.3 151.3,578.1 153.7,576L155.6,575.8L155.9,579.2L159.2,578.9L162.6,577C162.7,578 163.8,578.5 166.1,578.3L166.4,581.7C166.7,585 164.8,590 160.8,596.9C157.2,601 153.3,609.6 149.2,622.7L149.3,624.3L152.6,624C167,607.9 177.9,592.1 185.4,576.7C227.4,564.4 259.4,552.3 281.6,540.4C303.9,538.5 320.9,532.6 332.5,522.9L332.3,521.1L323.9,523.6L322,523.8L321.8,522C338.2,519.5 349.5,515.9 355.8,510.9C387.7,486.3 411.8,468.9 428.1,458.6C461.6,434 483.4,410 493.3,386.7ZM203.3,235.8L201.6,235.9L201.3,232.8L208.2,232.2L208.3,233.8C207.2,233.9 205.5,234.5 203.3,235.8ZM169.6,572.9C165.6,571.1 162,570.4 158.9,570.7L158.5,565.8C158.3,563.9 159.4,562.6 161.8,562.1C164,561.9 165.3,563.5 165.5,566.7C171.3,559.6 174.5,556 175.1,555.9L178.8,557.4C177.6,567.4 174.5,572.5 169.6,572.9ZM529.7,196.2C528,196.4 524.6,191.1 519.7,180.6L519.4,177.5C522.6,177.2 525.9,182.4 529.4,193.1L529.7,196.2ZM524.9,158.9L523.5,162.2L474.6,141.8C507.2,142.9 524,148.6 524.9,158.9ZM318.4,336.2L311.5,336.8L311.2,333.7L318.1,333.1L318.4,336.2ZM312.8,229.7L314.5,229.6L314.9,234.5C313.3,234.6 311.2,237 308.6,241.6L308.3,238.2C311.4,234.5 313,231.7 312.8,229.7ZM298.3,263.9L298.9,270.4L297.2,270.5L296.6,264L298.3,263.9ZM290.7,276.1L294,275.8C293.7,281.2 292.2,284.1 289.5,284.3L287.8,284.4C289.9,280.8 290.9,278 290.7,276.1ZM285,293.1L286.9,292.9L287,294.5L283.9,299.7L280.6,300L280.5,298.4C283.8,298.1 285.3,296.4 285,293.1ZM279.4,308.4L278.4,316.6L276.7,316.7L276,308.6L279.4,308.4ZM223.3,467.9C221.1,479.1 218.7,484.8 216.2,485L216.1,483.4C215.5,477.9 217.9,472.7 223.3,467.9ZM213,490.2L213.1,491.8C213.3,494 212.3,495.3 210.1,495.4L210,493.8C209.8,491.9 210.8,490.7 213,490.2ZM210,536.5L215.2,536L215.4,537.8C214.1,537.9 212.4,538.6 210.3,539.8L207,540.1C206.8,538.4 207.9,537.1 210,536.5ZM358,490.8C328.8,505.2 311.6,515 306.5,520.1C274.9,531.1 259.2,537.9 259.5,540.6C231.4,551.7 212.9,559.9 204,565C201.9,565.2 198.9,564.4 194.9,562.6C194.4,556.9 197,552.3 202.5,548.6C207.4,548.2 212.1,548.9 216.6,550.8C221.8,548.1 230.9,545.1 243.8,541.9L243.5,538.5L233.1,539.4C234.4,537.6 244.4,532.9 263.2,525.3L268.4,524.8L268.5,526.4C259.6,527.2 254.7,529.8 253.6,534.5C253.8,536.6 255,537.5 257.2,537.3C263.9,533.1 267.2,530.6 267.1,529.9C279.8,527.5 314.9,509.1 372.4,474.8L372.7,477.9C372.8,479.4 367.9,483.6 358,490.8ZM269.8,519.8C278.2,519.1 285.4,515.7 291.4,509.8C293.8,509.6 295.1,510.5 295.2,512.6C291.1,513 283.2,516.4 271.7,523L270,523.1L269.8,519.8ZM412.1,410.5L368,445.5C335.2,467 317.6,477.8 315,478C262.8,506.7 230.3,521.6 217.7,522.7L215.8,522.9C217.4,517 240.6,469.5 285.6,380.1C305.4,378.4 336.6,369.2 379.1,352.4L389.5,351.5C411,349.6 427.1,353.8 437.7,363.8L438.3,370.3C430.4,393.2 421.6,406.6 412.1,410.5ZM325.9,362L333,361.4L333.1,363L326,363.6L325.9,362ZM425.6,345.1L430.8,344.6C435.6,346.9 438.1,348.9 438.3,350.7L438.4,352.3C433.8,352.7 429.5,350.3 425.6,345.1ZM439.7,264.8C435.1,270.3 422.5,279.7 401.9,292.9C395.1,293.5 369.8,303.3 326,322.5C323.8,321.5 321.5,321.1 319,321.3L318.7,318.2C318.2,311.9 321,304 327.2,294.4C330.6,276.4 334.3,266.1 338.4,263.6L374.9,181.5C374.5,176.4 382.3,172.5 398.3,169.8L403.5,169.3L403.9,174C419.6,171.6 429.4,170.2 433.2,169.9C462.2,167.4 477.3,173.3 478.5,187.4L481.8,187.1L481.1,178.8L484.7,178.5C493.2,183.2 497.8,188.9 498.4,195.6C498.8,200.2 496.3,205.9 491,212.7C488.8,212.9 487.5,211.3 487.3,208.1L483.7,208.4L482.9,218.4C468.2,240.4 457.5,251.7 450.9,252.3C444.9,260.6 441.2,264.7 439.7,264.8ZM462.1,322.3C459.1,320.3 456.7,319.4 454.9,319.5L454.5,314.6L457.8,314.3L465.1,318.6C465.4,320.9 464.4,322.1 462.1,322.3ZM485.3,349.8C488.5,351.1 490.4,352.5 490.8,353.8L489.2,354.2L489.3,354.3C489,354.3 488.6,354.4 488.3,354.5L485.9,356.4L485.3,349.8ZM487.5,363.6L487.2,362.3L491.4,361.3L491.7,362.6L487.5,363.6ZM497.6,374.9C497.825,374.863 497.1,376.9 497.1,376.9C497.3,376.2 497.5,375.5 497.6,374.9Z" style="fill:rgb(249,220,62);fill-rule:nonzero;"/>
        </g>
    </g>
</svg>
