<svg xmlns="http://www.w3.org/2000/svg" viewBox="0 0 652.66 668.31"><defs><style>.a{fill:#fff;stroke-miterlimit:10;}.a,.b{stroke:#000;stroke-width:16px;}.b{fill:none;stroke-linejoin:round;}</style></defs><path class="a" d="M688.64,392V633.69h372.91V392S948,335.25,874.79,392C874.79,392,804.61,330.37,688.64,392Z" transform="translate(-542.84 -174)"/><path class="b" d="M875.1,392.31V633.69S765.85,579.07,689,634" transform="translate(-542.84 -174)"/><path class="b" d="M875.1,634s99.48-56.76,186.76,0" transform="translate(-542.84 -174)"/><path d="M1038.47,247.42a316.84,316.84,0,0,1,85.4,72.75c6,7.24,11.59,14.88,17,22.64s10.23,15.88,14.89,24.1a317.23,317.23,0,0,1,23,51.86c1.61,4.47,2.89,9,4.3,13.56l1.88,6.87.93,3.43.82,3.47,1.62,6.93,1.41,7c.22,1.16.48,2.32.68,3.49l.59,3.52c.38,2.34.81,4.68,1.15,7a320.73,320.73,0,0,1-20.57,168.52,312.47,312.47,0,0,1-26.62,51,322.73,322.73,0,0,1-239.17,147l-7.28.67c-2.43.21-4.85.48-7.29.53-4.87.19-9.74.42-14.61.56l-14.64-.14-1.83,0-1.82-.11-3.66-.22-7.31-.44a329.69,329.69,0,0,1-295-251.56A335.72,335.72,0,0,1,580.62,356.3,341.2,341.2,0,0,1,703,224.68c4.37-2.58,8.7-5.24,13.12-7.74l13.46-7.14,13.81-6.49c1.14-.57,2.32-1,3.5-1.52l3.53-1.45,7.06-2.91A345.36,345.36,0,0,1,877,174v62a284.73,284.73,0,0,0-99,16.13l-5.91,2.21-3,1.11c-1,.37-2,.71-2.94,1.15l-11.62,5-11.37,5.58c-3.74,2-7.41,4.06-11.12,6.08a284.33,284.33,0,0,0-139.58,204c-10.6,68,4,140,41.68,198.66a294.86,294.86,0,0,0,70.61,76.55,288.6,288.6,0,0,0,93.5,47.17A298.18,298.18,0,0,0,850.1,810l6.59.61,3.3.31,1.66.16,1.65.07,13.26.56,13.28-.09c2.22,0,4.43-.14,6.64-.27l6.63-.39a297.24,297.24,0,0,0,102.71-26.22,302.31,302.31,0,0,0,121.73-102.62,293.23,293.23,0,0,0,26.48-47,304.63,304.63,0,0,0,25.9-104.79,311.48,311.48,0,0,0-1.38-54.44c-.26-2.26-.6-4.51-.89-6.76l-.45-3.39c-.16-1.12-.37-2.24-.55-3.37l-1.14-6.73-1.34-6.7-.68-3.35-.79-3.32-1.58-6.65c-1.23-4.39-2.31-8.83-3.72-13.17a305.25,305.25,0,0,0-20.55-50.74c-4.27-8.1-8.75-16.09-13.69-23.82s-10.12-15.3-15.77-22.53a310.38,310.38,0,0,0-81.34-73.89Z" transform="translate(-542.84 -174)"/><polygon points="526.4 187.75 520.82 90.62 586.85 19.17 356.82 31.81 526.4 187.75"/></svg>