<?xml version="1.0" encoding="iso-8859-1"?>
<!-- Uploaded to: SVG Repo, www.svgrepo.com, Generator: SVG Repo Mixer Tools -->
<svg height="800px" width="800px" version="1.1" id="Layer_1" xmlns="http://www.w3.org/2000/svg" xmlns:xlink="http://www.w3.org/1999/xlink" 
	 viewBox="0 0 508 508" xml:space="preserve">
<circle style="fill:#FD8469;" cx="254" cy="254" r="254"/>
<path style="fill:#FFFFFF;" d="M329.6,112.8c0,0,3.2,31.2-10.4,44.4c-13.6,13.6-12,26-12,26c-0.4,2.8-2.4,4.8-3.6,5.6
	c-3.6,2.4-9.2,1.6-10.4-2c-2.8-7.6-1.6-17.2,1.2-26.8L258,200.8c-3.2,3.6-8.4,4-12,0.8c-4-3.2-4.4-8.8-1.2-12.8l31.2-36.4
	c0.4-0.4,0.4-0.8,0-1.2s-0.8-0.4-1.2,0l-34.8,40c-2.8,3.2-7.6,4.4-11.2,2c-0.4,0-0.4-0.4-0.8-0.4l0,0c-3.6-3.2-4-8.8-0.8-12.4
	l33.2-38c0.4-0.4,0.4-0.8,0-1.2s-0.8-0.4-1.2,0l-25.6,29.2c-3.2,4-9.2,4-12.8,0c-2.8-3.2-2.4-8,0.4-11.2l28-32
	c0.4-0.4,0.4-0.8,0-1.2c-0.4-0.4-0.8-0.4-1.2,0l-18,20c-2.8,3.2-8,3.6-11.2,0.8c-3.6-2.8-4-8.4-0.8-12l23.2-25.6
	c10-10.8,21.2-20.8,33.2-29.2l10.4-7.2c0,0,7.2-4.8,15.6-11.6L336,97.6C332.4,103.6,329.6,109.2,329.6,112.8z"/>
<path style="fill:#FFD05B;" d="M330.8,12l-39.6,40.4l51.6,52.4L400,46.4C379.2,31.6,356,20,330.8,12z"/>
<path style="fill:#FFFFFF;" d="M290.4,372.8l-23.2,25.6c-10,11.2-21.2,20.8-33.2,29.2l-10.4,7.2c0,0-7.2,4.8-15.6,11.6L172.4,410
	c4-6,6.8-11.6,6.4-15.2c0,0-3.2-31.2,10.4-44.4c13.6-13.6,12-26,12-26c0.4-2.8,2.4-4.8,3.6-5.6c3.6-2.4,9.2-1.6,10.4,2
	c2.8,7.6,1.6,17.2-1.2,26.8l36-40.4c3.2-3.6,8.4-4,12-0.8c4,3.2,4.4,8.8,1.2,12.8L232,355.6c-0.4,0.4-0.4,0.8,0,1.2
	c0.4,0.4,0.8,0.4,1.2,0l34.8-40c2.8-3.2,7.6-4.4,11.2-2c0.4,0,0.4,0.4,0.8,0.4l0,0c3.6,3.2,4,8.8,0.8,12.4l-33.2,38
	c-0.4,0.4-0.4,0.8,0,1.2c0.4,0.4,0.8,0.4,1.2,0l25.6-29.2c3.2-4,9.2-4,12.8,0c2.8,3.2,2.4,8-0.4,11.2l-28,32c-0.4,0.4-0.4,0.8,0,1.2
	c0.4,0.4,0.8,0.4,1.2,0l17.6-20c2.8-3.2,8-3.6,11.2-0.8C293.2,364,293.6,369.2,290.4,372.8z"/>
<path style="fill:#324A5E;" d="M107.6,461.6c20.8,14.8,44.4,26.4,69.2,34.4l39.6-40.4l-51.6-52.4L107.6,461.6z"/>
<path style="fill:#FFFFFF;" d="M446.8,300.4L410.4,336c-6-4-11.6-6.8-15.2-6.4c0,0-31.2,3.2-44.4-10.4c-13.6-13.6-26-12-26-12
	c-2.8-0.4-4.8-2.4-5.6-3.6c-2.4-3.6-1.6-9.2,2-10.4c7.6-2.8,17.2-1.6,26.8,1.2L307.2,258c-3.6-3.2-4-8.4-0.8-12
	c3.2-4,8.8-4.4,12.8-1.2l36.4,31.2c0.4,0.4,0.8,0.4,1.2,0c0.4-0.4,0.4-0.8,0-1.2l-40-34.8c-3.2-2.8-4.4-7.6-2-11.2
	c0-0.4,0.4-0.4,0.4-0.8l0,0c3.2-3.6,8.8-4,12.4-0.8l38,33.2c0.4,0.4,0.8,0.4,1.2,0c0.4-0.4,0.4-0.8,0-1.2l-29.2-25.6
	c-4-3.2-4-9.2,0-12.8c3.2-2.8,8-2.4,11.2,0.4l32,28c0.4,0.4,0.8,0.4,1.2,0c0.4-0.4,0.4-0.8,0-1.2l-20-18c-3.2-2.8-3.6-8-0.8-11.2
	c2.8-3.6,8.4-4,12-0.8l25.6,23.2c11.2,10,20.8,21.2,29.2,33.2l7.2,10.4C435.2,284.8,440,291.6,446.8,300.4z"/>
<path style="fill:#54C0EB;" d="M461.6,400.4c14.8-20.8,26.4-44.4,34.4-69.2l-40.4-39.6l-52.4,51.6L461.6,400.4z"/>
<path style="fill:#FFFFFF;" d="M202,262.4c-3.2,4-8.8,4.4-12.8,1.2l-36.4-31.2c-0.4-0.4-0.8-0.4-1.2,0s-0.4,0.8,0,1.2l40,34.8
	c3.2,2.8,4.4,7.6,2,11.2c0,0.4-0.4,0.4-0.4,0.8l0,0c-3.2,3.6-8.8,4-12.4,0.8l-38-33.2c-0.4-0.4-0.8-0.4-1.2,0s-0.4,0.8,0,1.2
	l29.2,25.6c4,3.2,4,9.2,0,12.8c-3.2,2.8-8,2.4-11.2-0.4l-32-28c-0.4-0.4-0.8-0.4-1.2,0s-0.4,0.8,0,1.2l20,17.6
	c3.2,2.8,3.6,8,0.8,11.2c-2.8,3.6-8.4,4-11.6,0.8l-26-23.2c-10.8-10-20.8-21.2-29.2-33.2l-7.2-10.4c0,0-4.8-7.2-11.6-15.6L98,172
	c6,4,11.6,6.8,15.2,6.4c0,0,31.2-3.2,44.4,10.4c13.6,13.6,26,12,26,12c2.8,0.4,4.8,2.4,5.6,3.6c2.4,3.6,1.6,9.2-2,10.4
	c-7.6,2.8-17.2,1.6-26.8-1.2l40.4,36.4C204.4,253.2,204.8,258.4,202,262.4z"/>
<path style="fill:#4CDBC4;" d="M12,177.2l40.4,39.6l52.4-51.6l-58.4-57.6C31.6,128.8,20,152,12,177.2z"/>
</svg>